<svg id="Layer_1" data-name="Layer 1" xmlns="http://www.w3.org/2000/svg" viewBox="0 0 646.29 393.9"><defs><style>.cls-1{fill:#373e66;}.cls-2{fill:#2d375f;}</style></defs><title>Artboard 1</title><path class="cls-1" d="M174,124.59a7.62,7.62,0,1,1-6.9-8.28,7.6,7.6,0,0,1,6.9,8.28m1.58-10.11h0c-11.57-11.69-34.9-14.36-80.22,5.22-.19.08-.85.38-.85.4a4.22,4.22,0,0,0-2,3.57,4.12,4.12,0,0,0,4.22,4.23,8.48,8.48,0,0,0,2-.55c6.65-2.44,39.44-11.37,56.7,4.21.56.46,1.08.93,1.61,1.43s1,1,1.42,1.6c15.54,17.28,6.56,50.06,4.11,56.71a8,8,0,0,0-.55,2,4.11,4.11,0,0,0,4.22,4.24,4.21,4.21,0,0,0,3.57-2,6,6,0,0,0,.39-.85c19.66-45.29,17-68.62,5.38-80.21"/><path class="cls-1" d="M198.13,102.56a9.9,9.9,0,1,1-9-10.74,9.93,9.93,0,0,1,9,10.74"/><path class="cls-1" d="M153,143a5.19,5.19,0,1,1-4.7-5.63A5.17,5.17,0,0,1,153,143"/><path class="cls-1" d="M138.43,156.1a3.9,3.9,0,1,1-3.54-4.22,3.92,3.92,0,0,1,3.54,4.22"/><rect class="cls-2" x="59.43" y="214.74" width="509.79" height="0.57"/><path class="cls-1" d="M279.06,114.88h-6.33a3.66,3.66,0,0,0-3.48,3.8v50.19l-38.9-52.76c-1.63-2.21-2.84-2.39-4.25-2.39h-.79a3.64,3.64,0,0,0-3.49,3.69v78a3.71,3.71,0,0,0,3.49,3.8h6.23a3.65,3.65,0,0,0,3.48-3.8V143.65l39,54.4c1.54,2.1,2.75,2.27,4.16,2.27h.89a3.63,3.63,0,0,0,3.48-3.68v-78A3.7,3.7,0,0,0,279.06,114.88Z"/><path class="cls-1" d="M307.37,114.88h-6.53a3.7,3.7,0,0,0-3.48,3.8v76.68a3.7,3.7,0,0,0,3.48,3.8h6.53a3.7,3.7,0,0,0,3.48-3.8V118.68A3.7,3.7,0,0,0,307.37,114.88Z"/><path class="cls-1" d="M352.28,114.88H329.7a3.66,3.66,0,0,0-3.48,3.8v76.68a3.65,3.65,0,0,0,3.48,3.8h6.44a3.7,3.7,0,0,0,3.48-3.8V169.74h12.75c13.06,0,23.68-12.41,23.68-27.66C376.05,127.08,365.39,114.88,352.28,114.88ZM362.65,142c0,7.42-4.64,13.23-10.57,13.23H339.62V129.67h12.46C358,129.67,362.65,135.07,362.65,142Z"/><path class="cls-1" d="M440.72,114.88h-6.53a3.66,3.66,0,0,0-3.48,3.8V149.4h-33V118.68a3.66,3.66,0,0,0-3.48-3.8h-6.54a3.7,3.7,0,0,0-3.48,3.8v76.68a3.7,3.7,0,0,0,3.48,3.8h6.54a3.66,3.66,0,0,0,3.48-3.8V163.49h33v31.87a3.65,3.65,0,0,0,3.48,3.8h6.53a3.71,3.71,0,0,0,3.49-3.8V118.68A3.71,3.71,0,0,0,440.72,114.88Z"/><path class="cls-1" d="M59.54,226.66a.61.61,0,0,1,.61-.58h.26a1,1,0,0,1,1,.48L75,242.33h.07V227a.61.61,0,0,1,.61-.62h2.07a.64.64,0,0,1,.62.62v21.79a.61.61,0,0,1-.62.58h-.29a1,1,0,0,1-.94-.45L62.87,232.68h-.06v15.77a.62.62,0,0,1-.62.62h-2a.63.63,0,0,1-.61-.62Z"/><path class="cls-1" d="M90.26,233.78a7.82,7.82,0,1,1-7.64,7.78A7.77,7.77,0,0,1,90.26,233.78Zm0,12.57a4.75,4.75,0,1,0-4.46-4.79A4.53,4.53,0,0,0,90.26,246.35Z"/><path class="cls-1" d="M101.47,234.82a.74.74,0,0,1,.71-.71H103a.7.7,0,0,1,.65.52L104,236a5.68,5.68,0,0,1,4.53-2.21c1.42,0,3.2.39,2.72,1.4l-.78,1.62a.65.65,0,0,1-.91.35,3.62,3.62,0,0,0-1.35-.29,4.24,4.24,0,0,0-3.53,2v9.49c0,.64-.43.71-1,.71h-1.49a.72.72,0,0,1-.71-.71Z"/><path class="cls-1" d="M112.87,235a.53.53,0,0,1,.51-.84h2a.65.65,0,0,1,.64.45l2.46,8.58h.07l4-9a.68.68,0,0,1,.61-.36h.23a.65.65,0,0,1,.65.36l4,9h.07l2.39-8.62c.2-.45.75-.45,1.14-.45H133c.51,0,.8.39.58.84L129.31,249a.68.68,0,0,1-.68.38h-.13a.69.69,0,0,1-.64-.35l-4.57-10.17h-.06l-4.6,10.17a.57.57,0,0,1-.58.35h-.2a.59.59,0,0,1-.61-.38Z"/><path class="cls-1" d="M143.63,233.78a6.67,6.67,0,0,1,6.83,6.87,9.08,9.08,0,0,1-.07,1,.69.69,0,0,1-.68.64H139.38a4.38,4.38,0,0,0,4.47,4.08,5.79,5.79,0,0,0,3.66-1.26c.33-.23.62-.32.88.06l.87,1.36c.26.33.39.62-.07,1a8.53,8.53,0,0,1-5.53,1.84c-4.53,0-7.48-3.56-7.48-7.83S139.13,233.78,143.63,233.78Zm3.62,6.16a3.53,3.53,0,0,0-3.69-3.4,3.79,3.79,0,0,0-4,3.4Z"/><path class="cls-1" d="M167.26,249.16c0,4.67-3,7-6.93,7a8.08,8.08,0,0,1-5.18-1.88.69.69,0,0,1-.16-.84l.78-1.43a.63.63,0,0,1,1-.22,5.63,5.63,0,0,0,3.5,1.39c2,0,3.72-1,3.72-4v-.8a8,8,0,0,1-3.82,1.06c-4.08,0-7.22-3.46-7.22-7.83s3-7.81,7.06-7.81a6.93,6.93,0,0,1,4.73,1.79l.39-.94c.09-.29.19-.52.55-.52h.87a.74.74,0,0,1,.71.71Zm-6.7-2.81a6,6,0,0,0,3.46-1.2V239a4.37,4.37,0,0,0-3.59-2.11c-2.56,0-4.24,2.2-4.24,4.73A4.61,4.61,0,0,0,160.56,246.35Z"/><path class="cls-1" d="M171.28,228.73a2.15,2.15,0,0,1,2.13-2.2,2.19,2.19,0,1,1,0,4.37A2.14,2.14,0,0,1,171.28,228.73Zm.52,6.09a.74.74,0,0,1,.71-.71h1.81a.76.76,0,0,1,.71.71v13.54a.74.74,0,0,1-.71.71h-1.81a.72.72,0,0,1-.71-.71Z"/><path class="cls-1" d="M184.42,239.61a11.28,11.28,0,0,1,3,.46c.07-2.37-.51-3.44-2.39-3.44a15.22,15.22,0,0,0-4.18.72.7.7,0,0,1-.84-.62l-.29-1.23a.67.67,0,0,1,.48-.87,15.92,15.92,0,0,1,5.15-.85c4.79,0,5.25,2.89,5.25,6.61v8a.75.75,0,0,1-.71.71h-1.07c-.29,0-.46-.13-.62-.52l-.35-1a6.53,6.53,0,0,1-4.6,1.87,4.61,4.61,0,0,1-4.83-5C178.43,241.69,180.57,239.61,184.42,239.61Zm-.48,7.16A4.63,4.63,0,0,0,187.4,245v-2.5a6.82,6.82,0,0,0-2.72-.51c-1.75,0-3.07.9-3.07,2.45A2.18,2.18,0,0,0,183.94,246.77Z"/><path class="cls-1" d="M195,234.82a.75.75,0,0,1,.71-.71h.78a.58.58,0,0,1,.62.45l.45,1.3a6.73,6.73,0,0,1,5-2.08c4.56,0,5.79,3.18,5.79,7.06v7.52a.74.74,0,0,1-.71.71h-1.81a.72.72,0,0,1-.71-.71v-7.65c0-2.42-1-3.85-3-3.85a4.56,4.56,0,0,0-3.95,2.17v9.33c0,.48-.26.71-.87.71h-1.66a.73.73,0,0,1-.71-.71Z"/><path class="cls-1" d="M221.21,227a.63.63,0,0,1,.61-.62H224a.63.63,0,0,1,.61.62v21.43a.63.63,0,0,1-.61.62h-2.14a.63.63,0,0,1-.61-.62Z"/><path class="cls-1" d="M229.79,234.82a.74.74,0,0,1,.71-.71h.78a.57.57,0,0,1,.61.45l.45,1.3a6.75,6.75,0,0,1,5-2.08c4.57,0,5.8,3.18,5.8,7.06v7.52a.75.75,0,0,1-.71.71h-1.82a.73.73,0,0,1-.71-.71v-7.65c0-2.42-1-3.85-2.94-3.85A4.53,4.53,0,0,0,233,239v9.33c0,.48-.26.71-.88.71H230.5a.72.72,0,0,1-.71-.71Z"/><path class="cls-1" d="M246.92,247.9a.6.6,0,0,1-.26-.77l.68-1.4a.66.66,0,0,1,1-.19,7,7,0,0,0,3.72,1.1c1.27,0,2-.62,2-1.46,0-1-1.14-1.65-3.21-2.59-2.3-1-4.05-2.26-4.05-4.73,0-1.87,1.33-4.08,5-4.08a8.29,8.29,0,0,1,4.37,1.11.87.87,0,0,1,.32,1.1l-.52,1a.69.69,0,0,1-1,.29,7.78,7.78,0,0,0-3.2-.74c-1.3,0-1.91.65-1.91,1.33,0,1,1.07,1.55,2.56,2.2,2.75,1.16,4.82,2.17,4.82,5,0,2.33-2,4.37-5.34,4.37A8.6,8.6,0,0,1,246.92,247.9Z"/><path class="cls-1" d="M261.62,236.86H259.9a.72.72,0,0,1-.71-.71v-1.33a.68.68,0,0,1,.71-.71h1.72v-4.18a.71.71,0,0,1,.71-.71h1.84a.69.69,0,0,1,.68.71v4.18h3.95a.7.7,0,0,1,.72.71v1.33a.75.75,0,0,1-.72.71h-3.95v8c0,1.26.49,1.52,1.2,1.52a5,5,0,0,0,2.4-.71.56.56,0,0,1,.87.32l.59,1.52c.16.39,0,.65-.36.88a9.12,9.12,0,0,1-4.15,1.06c-3,0-3.78-1.81-3.78-4.46Z"/><path class="cls-1" d="M272.4,228.73a2.15,2.15,0,0,1,2.14-2.2,2.19,2.19,0,1,1,0,4.37A2.14,2.14,0,0,1,272.4,228.73Zm.52,6.09a.74.74,0,0,1,.71-.71h1.81a.76.76,0,0,1,.71.71v13.54a.74.74,0,0,1-.71.71h-1.81a.72.72,0,0,1-.71-.71Z"/><path class="cls-1" d="M281.69,236.86H280a.72.72,0,0,1-.71-.71v-1.33a.68.68,0,0,1,.71-.71h1.72v-4.18a.71.71,0,0,1,.71-.71h1.85a.69.69,0,0,1,.68.71v4.18h3.95a.69.69,0,0,1,.71.71v1.33a.74.74,0,0,1-.71.71h-3.95v8c0,1.26.49,1.52,1.2,1.52a5,5,0,0,0,2.39-.71.57.57,0,0,1,.88.32l.58,1.52c.16.39,0,.65-.36.88a9.07,9.07,0,0,1-4.14,1.06c-3,0-3.79-1.81-3.79-4.46Z"/><path class="cls-1" d="M292.83,234.82a.77.77,0,0,1,.71-.71h1.81a.75.75,0,0,1,.72.71v8c0,2.46,1,3.56,2.91,3.56a3.71,3.71,0,0,0,3.5-2.46v-9.07c0-.61.29-.71.84-.71H305a.78.78,0,0,1,.75.71v13.54a.76.76,0,0,1-.75.71h-.78c-.38,0-.55-.26-.68-.62l-.38-1.07a6,6,0,0,1-4.73,2c-4.47,0-5.57-2.94-5.57-6.86Z"/><path class="cls-1" d="M311.25,236.86h-1.71a.73.73,0,0,1-.72-.71v-1.33a.69.69,0,0,1,.72-.71h1.71v-4.18a.72.72,0,0,1,.71-.71h1.85a.69.69,0,0,1,.68.71v4.18h3.95a.69.69,0,0,1,.71.71v1.33a.74.74,0,0,1-.71.71h-3.95v8c0,1.26.49,1.52,1.2,1.52a5.08,5.08,0,0,0,2.4-.71.56.56,0,0,1,.87.32l.58,1.52c.16.39,0,.65-.35.88a9.16,9.16,0,0,1-4.15,1.06c-3,0-3.79-1.81-3.79-4.46Z"/><path class="cls-1" d="M329.09,233.78a6.67,6.67,0,0,1,6.84,6.87c0,.26,0,.78-.07,1a.69.69,0,0,1-.68.64H324.85a4.37,4.37,0,0,0,4.47,4.08,5.79,5.79,0,0,0,3.66-1.26c.32-.23.61-.32.87.06l.88,1.36c.26.33.39.62-.07,1a8.55,8.55,0,0,1-5.53,1.84c-4.54,0-7.48-3.56-7.48-7.83S324.59,233.78,329.09,233.78Zm3.63,6.16a3.53,3.53,0,0,0-3.69-3.4,3.81,3.81,0,0,0-4,3.4Z"/><path class="cls-1" d="M353.8,233.78a7.82,7.82,0,1,1-7.64,7.78A7.77,7.77,0,0,1,353.8,233.78Zm0,12.57a4.75,4.75,0,1,0-4.47-4.79A4.54,4.54,0,0,0,353.8,246.35Z"/><path class="cls-1" d="M366.27,237.12h-1.95a.72.72,0,0,1-.71-.71v-1.59a.68.68,0,0,1,.71-.71h1.95v-1.72c0-4,1.91-6.31,5.53-6.31a6.57,6.57,0,0,1,4.24,1.49.64.64,0,0,1,.13.84l-.94,1.36c-.22.36-.58.39-1,.13a4,4,0,0,0-2.39-.75c-1.69,0-2.37,1.36-2.37,3.24v1.72h4.25a.7.7,0,0,1,.71.71v1.59a.75.75,0,0,1-.71.71H369.5v11.24a.74.74,0,0,1-.71.71H367a.74.74,0,0,1-.71-.71Z"/><path class="cls-1" d="M385.82,227a.62.62,0,0,1,.62-.62h7.38a7.22,7.22,0,1,1,0,14.44h-4.69v7.61a.64.64,0,0,1-.62.62h-2.1a.62.62,0,0,1-.62-.62Zm7.94,10.65a4,4,0,0,0,4-4.14,3.88,3.88,0,0,0-4-3.89h-4.6v8Z"/><path class="cls-1" d="M404,234.82a.76.76,0,0,1,.71-.71h1.81a.74.74,0,0,1,.71.71v8c0,2.46,1,3.56,2.92,3.56a3.69,3.69,0,0,0,3.49-2.46v-9.07c0-.61.3-.71.85-.71h1.65a.77.77,0,0,1,.74.71v13.54a.75.75,0,0,1-.74.71h-.78c-.39,0-.55-.26-.68-.62l-.39-1.07a6,6,0,0,1-4.73,2c-4.46,0-5.56-2.94-5.56-6.86Z"/><path class="cls-1" d="M421.38,227.11a.74.74,0,0,1,.71-.71h1.84a.77.77,0,0,1,.72.71v7.45a10.89,10.89,0,0,1,3.75-.78,7.5,7.5,0,0,1,7.35,7.81c0,4.27-3,7.83-7,7.83a7.24,7.24,0,0,1-4.92-2.1l-.33,1.1c-.09.39-.32.65-.68.65h-.77a.72.72,0,0,1-.71-.71Zm6.92,19.24c2.43,0,4.21-2.24,4.21-4.76a4.64,4.64,0,0,0-4.46-4.73,7.92,7.92,0,0,0-3.44.81v6.51A4.32,4.32,0,0,0,428.3,246.35Z"/><path class="cls-1" d="M439.47,227.11a.75.75,0,0,1,.72-.71H442a.76.76,0,0,1,.71.71v21.25a.74.74,0,0,1-.71.71h-1.81a.73.73,0,0,1-.72-.71Z"/><path class="cls-1" d="M446.82,228.73a2.15,2.15,0,0,1,2.14-2.2,2.19,2.19,0,1,1,0,4.37A2.14,2.14,0,0,1,446.82,228.73Zm.52,6.09a.75.75,0,0,1,.71-.71h1.82a.77.77,0,0,1,.71.71v13.54a.75.75,0,0,1-.71.71h-1.82a.73.73,0,0,1-.71-.71Z"/><path class="cls-1" d="M461.85,233.78a6.56,6.56,0,0,1,5.44,2.6.74.74,0,0,1-.13,1.06L466,238.51c-.42.39-.71.1-1-.16a4.58,4.58,0,1,0-3.17,8c1.94,0,2.72-1.1,3.53-1.85a.69.69,0,0,1,1-.06l1,.81c.35.32.51.68.25,1.07a6.82,6.82,0,0,1-5.82,3.1,7.63,7.63,0,0,1-7.65-7.8A7.78,7.78,0,0,1,461.85,233.78Z"/><path class="cls-1" d="M479.5,227a.63.63,0,0,1,.61-.62h2.14a.61.61,0,0,1,.61.62v9h11.85v-9a.62.62,0,0,1,.62-.62h2.14a.63.63,0,0,1,.61.62v21.43a.63.63,0,0,1-.61.62h-2.14a.62.62,0,0,1-.62-.62V239.1H482.86v9.35a.61.61,0,0,1-.61.62h-2.14a.63.63,0,0,1-.61-.62Z"/><path class="cls-1" d="M509.64,233.78a6.66,6.66,0,0,1,6.83,6.87c0,.26,0,.78-.06,1a.7.7,0,0,1-.68.64H505.4a4.37,4.37,0,0,0,4.47,4.08,5.81,5.81,0,0,0,3.66-1.26c.32-.23.61-.32.87.06l.88,1.36c.25.33.38.62-.07,1a8.56,8.56,0,0,1-5.54,1.84c-4.53,0-7.48-3.56-7.48-7.83S505.14,233.78,509.64,233.78Zm3.63,6.16a3.53,3.53,0,0,0-3.69-3.4,3.8,3.8,0,0,0-4,3.4Z"/><path class="cls-1" d="M524.73,239.61a11.38,11.38,0,0,1,3,.46c.07-2.37-.52-3.44-2.4-3.44a15.21,15.21,0,0,0-4.17.72.69.69,0,0,1-.84-.62L520,235.5a.66.66,0,0,1,.48-.87,15.92,15.92,0,0,1,5.15-.85c4.79,0,5.24,2.89,5.24,6.61v8a.74.74,0,0,1-.71.71h-1.07c-.29,0-.45-.13-.61-.52l-.36-1a6.53,6.53,0,0,1-4.6,1.87,4.61,4.61,0,0,1-4.82-5C518.74,241.69,520.88,239.61,524.73,239.61Zm-.49,7.16a4.65,4.65,0,0,0,3.47-1.81v-2.5A6.87,6.87,0,0,0,525,242c-1.75,0-3.08.9-3.08,2.45A2.19,2.19,0,0,0,524.24,246.77Z"/><path class="cls-1" d="M535.42,227.11a.74.74,0,0,1,.71-.71h1.81a.76.76,0,0,1,.71.71v21.25a.74.74,0,0,1-.71.71h-1.81a.72.72,0,0,1-.71-.71Z"/><path class="cls-1" d="M544.29,236.86h-1.72a.72.72,0,0,1-.71-.71v-1.33a.68.68,0,0,1,.71-.71h1.72v-4.18a.71.71,0,0,1,.71-.71h1.84a.69.69,0,0,1,.68.71v4.18h4a.7.7,0,0,1,.72.71v1.33a.75.75,0,0,1-.72.71h-4v8c0,1.26.49,1.52,1.2,1.52a5,5,0,0,0,2.4-.71.56.56,0,0,1,.87.32l.59,1.52c.16.39,0,.65-.36.88a9.11,9.11,0,0,1-4.14,1.06c-3,0-3.79-1.81-3.79-4.46Z"/><path class="cls-1" d="M555.59,227.11a.74.74,0,0,1,.71-.71h1.81a.77.77,0,0,1,.72.71v8.23a7.17,7.17,0,0,1,4.33-1.56c4.25,0,5.8,3,5.8,7.06v7.52a.75.75,0,0,1-.71.71h-1.82a.73.73,0,0,1-.71-.71v-7.58c0-2.46-1-3.92-3-3.92a4.43,4.43,0,0,0-3.91,2.17v9.33a.69.69,0,0,1-.75.71H556.3a.72.72,0,0,1-.71-.71Z"/></svg>